<svg width="12" height="13" viewBox="0 0 12 13" fill="none" xmlns="http://www.w3.org/2000/svg">
<path d="M6.00573 0.666626C7.41675 0.666626 8.56036 1.83329 8.57743 3.27413H8.69691C10.2672 3.27413 11.5417 4.58663 11.5417 6.19663V9.41663C11.5417 11.0266 10.2672 12.3333 8.69691 12.3333H3.30317C1.73284 12.3333 0.458374 11.0266 0.458374 9.41663V6.19663C0.458374 4.58663 1.73284 3.27413 3.30317 3.27413H3.42265C3.43403 2.57413 3.70144 1.92079 4.18506 1.43079C4.67436 0.934959 5.30022 0.684126 6.00573 0.666626ZM8.16209 3.96829C7.92881 3.96829 7.73537 4.16663 7.73537 4.40579V5.08246C7.73537 5.32163 7.92881 5.51996 8.16209 5.51996C8.40105 5.51996 8.58881 5.32163 8.58881 5.08246V4.40579C8.58881 4.16663 8.40105 3.96829 8.16209 3.96829ZM3.78679 3.96829C3.55351 3.96829 3.36007 4.16663 3.36007 4.40579V5.08246C3.36007 5.32163 3.55351 5.51996 3.78679 5.51996C4.02575 5.51996 4.21351 5.32163 4.21351 5.08246V4.40579C4.21351 4.16663 4.02575 3.96829 3.78679 3.96829ZM6.00573 1.54163C5.56763 1.54163 5.11246 1.72246 4.78247 2.05496C4.46385 2.38163 4.28747 2.81329 4.27609 3.27413H7.72399C7.70692 2.31746 6.94451 1.54163 6.00573 1.54163Z" fill="#006EE9"/>
</svg>
