<svg width="16" height="22" viewBox="0 0 16 22" fill="none" xmlns="http://www.w3.org/2000/svg">
<path d="M8 0.5C3.85953 0.5 0.5 3.52391 0.5 7.25C0.5 13.25 8 21.5 8 21.5C8 21.5 15.5 13.25 15.5 7.25C15.5 3.52391 12.1405 0.5 8 0.5ZM8 11C7.40666 11 6.82664 10.8241 6.33329 10.4944C5.83994 10.1648 5.45542 9.69623 5.22836 9.14805C5.0013 8.59987 4.94189 7.99667 5.05764 7.41473C5.1734 6.83279 5.45912 6.29824 5.87868 5.87868C6.29824 5.45912 6.83279 5.1734 7.41473 5.05764C7.99667 4.94189 8.59987 5.0013 9.14805 5.22836C9.69623 5.45542 10.1648 5.83994 10.4944 6.33329C10.8241 6.82664 11 7.40666 11 8C10.9991 8.79538 10.6828 9.55794 10.1204 10.1204C9.55794 10.6828 8.79538 10.9991 8 11Z" fill="#006EE9"/>
</svg>
