<svg width="25" height="25" viewBox="0 0 25 25" fill="none" xmlns="http://www.w3.org/2000/svg">
    <path d="M12.2927 11C13.1413 11 13.8293 10.3284 13.8293 9.5C13.8293 8.67157 13.1413 8 12.2927 8C11.4441 8 10.7561 8.67157 10.7561 9.5C10.7561 10.3284 11.4441 11 12.2927 11Z"
          fill="#006EE9"/>
    <path d="M12.2927 2C8.05649 2 4.60974 5.21797 4.60974 9.17188C4.60974 11.0548 5.48896 13.5589 7.2229 16.6147C8.61543 19.0681 10.2264 21.2867 11.0644 22.3906C11.2059 22.5792 11.3911 22.7326 11.6047 22.8384C11.8184 22.9441 12.0546 22.9992 12.2941 22.9992C12.5337 22.9992 12.7698 22.9441 12.9835 22.8384C13.1971 22.7326 13.3823 22.5792 13.5239 22.3906C14.3603 21.2867 15.9728 19.0681 17.3653 16.6147C19.0964 13.5598 19.9756 11.0558 19.9756 9.17188C19.9756 5.21797 16.5288 2 12.2927 2ZM12.2927 12.5C11.6849 12.5 11.0907 12.3241 10.5853 11.9944C10.0799 11.6648 9.68603 11.1962 9.45343 10.6481C9.22083 10.0999 9.15997 9.49667 9.27855 8.91473C9.39713 8.33279 9.68982 7.79824 10.1196 7.37868C10.5494 6.95912 11.097 6.6734 11.6931 6.55764C12.2893 6.44189 12.9072 6.5013 13.4687 6.72836C14.0303 6.95542 14.5102 7.33994 14.8479 7.83329C15.1856 8.32664 15.3658 8.90666 15.3658 9.5C15.3649 10.2954 15.0409 11.0579 14.4647 11.6204C13.8886 12.1828 13.1074 12.4991 12.2927 12.5Z"
          fill="#006EE9"/>
</svg>
