<svg width="186" height="150" viewBox="0 0 186 150" fill="none" xmlns="http://www.w3.org/2000/svg">
    <path d="M19.1074 130.252H31.9546C31.7115 128.682 30.6991 128.956 30.5665 126.52C30.5002 125.296 31.6319 123.779 31.5347 122.166C31.4551 120.839 30.1465 119.478 30.0448 117.961C29.952 116.591 31.0705 115.07 30.9599 113.593C30.8583 112.201 29.532 110.861 29.417 109.411C29.3021 107.961 30.3941 106.458 30.2658 105.03C30.1376 103.602 28.7848 102.28 28.6434 100.87C28.5019 99.4596 29.5541 97.8592 29.3905 96.4489C29.2225 94.9768 27.8299 93.7035 27.6221 92.3463C27.4099 90.8388 28.3958 89.2207 28.1659 87.9253C27.883 86.3294 26.3975 85.1711 26.0836 83.9907C25.5001 81.7802 25.5708 79.6758 24.8811 79.5388C24.1915 79.4017 23.9969 81.4707 23.4222 83.7873C23.1437 84.9545 21.6892 86.1348 21.446 87.7352C21.2869 89.0262 22.3037 90.6177 22.1357 92.1208C21.9854 93.4471 20.6326 94.7734 20.5 96.2279C20.3762 97.6072 21.477 99.1236 21.3841 100.565C21.2913 102.006 19.965 103.301 19.8722 104.725C19.7793 106.149 20.9155 107.638 20.8404 109.04C20.7652 110.441 19.4699 111.838 19.4036 113.226C19.3328 114.69 20.4911 116.166 20.4336 117.528C20.3718 119.031 19.1074 120.411 19.0499 121.728C18.9924 123.324 20.1684 124.801 20.133 126.016C20.0534 128.669 18.8421 128.112 18.8067 130.234L19.1074 130.252Z"
          fill="#006EE9"/>
    <path opacity="0.2"
          d="M19.1074 130.252H31.9546C31.7115 128.682 30.6991 128.956 30.5665 126.52C30.5002 125.296 31.6319 123.779 31.5347 122.166C31.4551 120.839 30.1465 119.478 30.0448 117.961C29.952 116.591 31.0705 115.07 30.9599 113.593C30.8583 112.201 29.532 110.861 29.417 109.411C29.3021 107.961 30.3941 106.458 30.2658 105.03C30.1376 103.602 28.7848 102.28 28.6434 100.87C28.5019 99.4596 29.5541 97.8592 29.3905 96.4489C29.2225 94.9768 27.8299 93.7035 27.6221 92.3463C27.4099 90.8388 28.3958 89.2207 28.1659 87.9253C27.883 86.3294 26.3975 85.1711 26.0836 83.9907C25.5001 81.7802 25.5708 79.6758 24.8811 79.5388C24.1915 79.4017 23.9969 81.4707 23.4222 83.7873C23.1437 84.9545 21.6892 86.1348 21.446 87.7352C21.2869 89.0262 22.3037 90.6177 22.1357 92.1208C21.9854 93.4471 20.6326 94.7734 20.5 96.2279C20.3762 97.6072 21.477 99.1236 21.3841 100.565C21.2913 102.006 19.965 103.301 19.8722 104.725C19.7793 106.149 20.9155 107.638 20.8404 109.04C20.7652 110.441 19.4699 111.838 19.4036 113.226C19.3328 114.69 20.4911 116.166 20.4336 117.528C20.3718 119.031 19.1074 120.411 19.0499 121.728C18.9924 123.324 20.1684 124.801 20.133 126.016C20.0534 128.669 18.8421 128.112 18.8067 130.234L19.1074 130.252Z"
          fill="white"/>
    <path d="M24.6247 83.774V129.659" stroke="black" stroke-width="0.60661" stroke-miterlimit="10"/>
    <path d="M26.6318 88.5841L24.5407 90.3923L22.8254 88.1111"
          stroke="black"
          stroke-width="0.60661"
          stroke-miterlimit="10"/>
    <path d="M26.6318 96.5728L24.5407 98.3766L22.8254 96.0953"
          stroke="black"
          stroke-width="0.60661"
          stroke-miterlimit="10"/>
    <path d="M26.6318 104.084L24.5407 105.888L22.8254 103.606"
          stroke="black"
          stroke-width="0.60661"
          stroke-miterlimit="10"/>
    <path d="M26.6318 113.019L24.5407 114.827L22.8254 112.546"
          stroke="black"
          stroke-width="0.60661"
          stroke-miterlimit="10"/>
    <path d="M26.6318 122.051L24.5407 123.859L22.8254 121.578"
          stroke="black"
          stroke-width="0.60661"
          stroke-miterlimit="10"/>
    <path d="M10.3583 130.252H20.2745C20.0844 129.04 19.3063 129.252 19.2002 127.374C19.1516 126.427 20.0269 125.256 19.9517 124.009C19.8854 122.988 18.8775 121.936 18.7979 120.764C18.7271 119.708 19.5892 118.554 19.5052 117.395C19.4212 116.237 18.4044 115.282 18.3116 114.164C18.2187 113.045 19.0676 111.887 18.9703 110.782C18.873 109.676 17.8297 108.66 17.7192 107.572C17.6086 106.485 18.4221 105.247 18.2939 104.177C18.1657 103.107 17.0914 102.059 16.9676 101.011C16.804 99.8443 17.5644 98.5976 17.3876 97.5896C17.171 96.3561 16.0215 95.4631 15.7784 94.5524C15.3363 92.8592 15.3849 91.2234 14.8544 91.1173C14.3239 91.0112 14.1559 92.6072 13.727 94.3977C13.5104 95.2818 12.4008 96.2103 12.2018 97.4437C12.0515 98.4428 12.8473 99.6542 12.7146 100.821C12.5997 101.86 11.5564 102.859 11.4547 103.991C11.3574 105.057 12.2062 106.228 12.1222 107.342C12.0382 108.456 11.0258 109.451 10.9551 110.552C10.8844 111.653 11.7597 112.798 11.7022 113.881C11.6448 114.964 10.6456 116.043 10.5926 117.113C10.5395 118.182 11.4326 119.385 11.3884 120.433C11.3397 121.595 10.3583 122.643 10.3229 123.678C10.2787 124.911 11.2071 126.047 11.1541 126.985C11.0922 129.023 10.1593 128.603 10.1284 130.243L10.3583 130.252Z"
          fill="#006EE9"/>
    <path opacity="0.2"
          d="M10.3583 130.252H20.2745C20.0844 129.04 19.3063 129.252 19.2002 127.374C19.1516 126.427 20.0269 125.256 19.9517 124.009C19.8854 122.988 18.8775 121.936 18.7979 120.764C18.7271 119.708 19.5892 118.554 19.5052 117.395C19.4212 116.237 18.4044 115.282 18.3116 114.164C18.2187 113.045 19.0676 111.887 18.9703 110.782C18.873 109.676 17.8297 108.66 17.7192 107.572C17.6086 106.485 18.4221 105.247 18.2939 104.177C18.1657 103.107 17.0914 102.059 16.9676 101.011C16.804 99.8443 17.5644 98.5976 17.3876 97.5896C17.171 96.3561 16.0215 95.4631 15.7784 94.5524C15.3363 92.8592 15.3849 91.2234 14.8544 91.1173C14.3239 91.0112 14.1559 92.6072 13.727 94.3977C13.5104 95.2818 12.4008 96.2103 12.2018 97.4437C12.0515 98.4428 12.8473 99.6542 12.7146 100.821C12.5997 101.86 11.5564 102.859 11.4547 103.991C11.3574 105.057 12.2062 106.228 12.1222 107.342C12.0382 108.456 11.0258 109.451 10.9551 110.552C10.8844 111.653 11.7597 112.798 11.7022 113.881C11.6448 114.964 10.6456 116.043 10.5926 117.113C10.5395 118.182 11.4326 119.385 11.3884 120.433C11.3397 121.595 10.3583 122.643 10.3229 123.678C10.2787 124.911 11.2071 126.047 11.1541 126.985C11.0922 129.023 10.1593 128.603 10.1284 130.243L10.3583 130.252Z"
          fill="white"/>
    <path d="M14.6157 94.3755V129.796" stroke="black" stroke-width="0.60661" stroke-miterlimit="10"/>
    <path d="M16.163 98.0891L14.5493 99.4817L13.2275 97.7222"
          stroke="black"
          stroke-width="0.60661"
          stroke-miterlimit="10"/>
    <path d="M16.163 104.252L14.5493 105.649L13.2275 103.889"
          stroke="black"
          stroke-width="0.60661"
          stroke-miterlimit="10"/>
    <path d="M16.163 110.052L14.5493 111.445L13.2275 109.685"
          stroke="black"
          stroke-width="0.60661"
          stroke-miterlimit="10"/>
    <path d="M16.163 116.949L14.5493 118.346L13.2275 116.582"
          stroke="black"
          stroke-width="0.60661"
          stroke-miterlimit="10"/>
    <path d="M16.163 123.925L14.5493 125.318L13.2275 123.558"
          stroke="black"
          stroke-width="0.60661"
          stroke-miterlimit="10"/>
    <path d="M164.46 130.252H176.905C176.666 128.731 175.689 128.996 175.556 126.64C175.494 125.45 176.591 123.987 176.498 122.422C176.418 121.136 175.149 119.818 175.052 118.346C174.964 117.02 176.047 115.547 175.936 114.12C175.839 112.767 174.553 111.467 174.438 110.066C174.323 108.664 175.388 107.205 175.264 105.821C175.141 104.438 173.832 103.169 173.69 101.794C173.549 100.419 174.575 98.8761 174.416 97.5321C174.252 96.1085 172.904 94.8795 172.722 93.5532C172.519 92.0899 173.474 90.5293 173.248 89.2649C172.974 87.7176 171.533 86.6123 171.232 85.4541C170.667 83.3276 170.737 81.2763 170.07 81.1392C169.402 81.0022 169.186 83.0093 168.655 85.2551C168.385 86.3869 166.975 87.5275 166.745 89.0792C166.555 90.3348 167.554 91.86 167.391 93.3145C167.245 94.6408 165.932 95.8787 165.804 97.2934C165.684 98.6197 166.75 100.096 166.643 101.493C166.537 102.89 165.269 104.146 165.18 105.521C165.092 106.896 166.188 108.341 166.113 109.703C166.038 111.065 164.787 112.413 164.725 113.757C164.658 115.172 165.777 116.604 165.72 117.922C165.662 119.38 164.429 120.716 164.393 121.989C164.336 123.541 165.472 124.969 165.437 126.145C165.361 128.704 164.19 128.174 164.15 130.229L164.46 130.252Z"
          fill="#006EE9"/>
    <path opacity="0.2"
          d="M164.46 130.252H176.905C176.666 128.731 175.689 128.996 175.556 126.64C175.494 125.45 176.591 123.987 176.498 122.422C176.418 121.136 175.149 119.818 175.052 118.346C174.964 117.02 176.047 115.547 175.936 114.12C175.839 112.767 174.553 111.467 174.438 110.066C174.323 108.664 175.388 107.205 175.264 105.821C175.141 104.438 173.832 103.169 173.69 101.794C173.549 100.419 174.575 98.8761 174.416 97.5321C174.252 96.1085 172.904 94.8795 172.722 93.5532C172.519 92.0899 173.474 90.5293 173.248 89.2649C172.974 87.7176 171.533 86.6123 171.232 85.4541C170.667 83.3276 170.737 81.2763 170.07 81.1392C169.402 81.0022 169.186 83.0093 168.655 85.2551C168.385 86.3869 166.975 87.5275 166.745 89.0792C166.555 90.3348 167.554 91.86 167.391 93.3145C167.245 94.6408 165.932 95.8787 165.804 97.2934C165.684 98.6197 166.75 100.096 166.643 101.493C166.537 102.89 165.269 104.146 165.18 105.521C165.092 106.896 166.188 108.341 166.113 109.703C166.038 111.065 164.787 112.413 164.725 113.757C164.658 115.172 165.777 116.604 165.72 117.922C165.662 119.38 164.429 120.716 164.393 121.989C164.336 123.541 165.472 124.969 165.437 126.145C165.361 128.704 164.19 128.174 164.15 130.229L164.46 130.252Z"
          fill="white"/>
    <path d="M169.804 85.2374V129.677" stroke="black" stroke-width="0.60661" stroke-miterlimit="10"/>
    <path d="M171.745 89.8926L169.72 91.6433L168.063 89.4329"
          stroke="black"
          stroke-width="0.60661"
          stroke-miterlimit="10"/>
    <path d="M171.745 97.6293L169.72 99.38L168.063 97.1696"
          stroke="black"
          stroke-width="0.60661"
          stroke-miterlimit="10"/>
    <path d="M171.745 104.906L169.72 106.657L168.063 104.446"
          stroke="black"
          stroke-width="0.60661"
          stroke-miterlimit="10"/>
    <path d="M171.745 113.562L169.72 115.313L168.063 113.103"
          stroke="black"
          stroke-width="0.60661"
          stroke-miterlimit="10"/>
    <path d="M171.745 122.312L169.72 124.062L168.063 121.852"
          stroke="black"
          stroke-width="0.60661"
          stroke-miterlimit="10"/>
    <path d="M155.985 130.252H165.591C165.406 129.076 164.65 129.283 164.552 127.462C164.499 126.547 165.348 125.411 165.273 124.208C165.215 123.213 164.238 122.197 164.159 121.065C164.093 120.039 164.928 118.903 164.844 117.798C164.76 116.692 163.779 115.755 163.69 114.668C163.602 113.58 164.42 112.457 164.327 111.392C164.234 110.326 163.222 109.34 163.111 108.297C163.001 107.254 163.792 106.047 163.673 105.008C163.553 103.969 162.505 102.957 162.346 101.944C162.192 100.812 162.925 99.6055 162.753 98.6284C162.541 97.4348 161.427 96.5683 161.197 95.6885C160.755 94.0439 160.812 92.4612 160.313 92.3595C159.813 92.2579 159.663 93.7875 159.221 95.5249C159.013 96.4091 157.925 97.2933 157.744 98.4737C157.598 99.4419 158.367 100.618 158.244 101.745C158.129 102.753 157.116 103.721 157.019 104.84C156.926 105.87 157.749 107.006 157.669 108.08C157.589 109.155 156.608 110.127 156.537 111.175C156.466 112.223 157.32 113.35 157.262 114.402C157.205 115.455 156.237 116.494 156.188 117.528C156.139 118.563 156.997 119.739 156.957 120.746C156.909 121.869 155.958 122.904 155.923 123.885C155.878 125.079 156.758 126.184 156.732 127.095C156.67 129.067 155.768 128.66 155.737 130.247L155.985 130.252Z"
          fill="#006EE9"/>
    <path opacity="0.2"
          d="M155.985 130.252H165.591C165.406 129.076 164.65 129.283 164.552 127.462C164.499 126.547 165.348 125.411 165.273 124.208C165.215 123.213 164.238 122.197 164.159 121.065C164.093 120.039 164.928 118.903 164.844 117.798C164.76 116.692 163.779 115.755 163.69 114.668C163.602 113.58 164.42 112.457 164.327 111.392C164.234 110.326 163.222 109.34 163.111 108.297C163.001 107.254 163.792 106.047 163.673 105.008C163.553 103.969 162.505 102.957 162.346 101.944C162.192 100.812 162.925 99.6055 162.753 98.6284C162.541 97.4348 161.427 96.5683 161.197 95.6885C160.755 94.0439 160.812 92.4612 160.313 92.3595C159.813 92.2579 159.663 93.7875 159.221 95.5249C159.013 96.4091 157.925 97.2933 157.744 98.4737C157.598 99.4419 158.367 100.618 158.244 101.745C158.129 102.753 157.116 103.721 157.019 104.84C156.926 105.87 157.749 107.006 157.669 108.08C157.589 109.155 156.608 110.127 156.537 111.175C156.466 112.223 157.32 113.35 157.262 114.402C157.205 115.455 156.237 116.494 156.188 117.528C156.139 118.563 156.997 119.739 156.957 120.746C156.909 121.869 155.958 122.904 155.923 123.885C155.878 125.079 156.758 126.184 156.732 127.095C156.67 129.067 155.768 128.66 155.737 130.247L155.985 130.252Z"
          fill="white"/>
    <path d="M160.109 95.5029V129.81" stroke="black" stroke-width="0.60661" stroke-miterlimit="10"/>
    <path d="M161.608 99.1015L160.043 100.45L158.765 98.7434"
          stroke="black"
          stroke-width="0.60661"
          stroke-miterlimit="10"/>
    <path d="M161.608 105.07L160.043 106.423L158.765 104.716"
          stroke="black"
          stroke-width="0.60661"
          stroke-miterlimit="10"/>
    <path d="M161.608 110.689L160.043 112.037L158.765 110.331"
          stroke="black"
          stroke-width="0.60661"
          stroke-miterlimit="10"/>
    <path d="M161.608 117.369L160.043 118.717L158.765 117.015"
          stroke="black"
          stroke-width="0.60661"
          stroke-miterlimit="10"/>
    <path d="M161.608 124.12L160.043 125.472L158.765 123.766"
          stroke="black"
          stroke-width="0.60661"
          stroke-miterlimit="10"/>
    <path d="M92.535 150C143.641 150 185.07 145.517 185.07 139.986C185.07 134.456 143.641 129.973 92.535 129.973C41.4293 129.973 0 134.456 0 139.986C0 145.517 41.4293 150 92.535 150Z"
          fill="#006EE9"/>
    <path opacity="0.5"
          d="M92.535 150C143.641 150 185.07 145.517 185.07 139.986C185.07 134.456 143.641 129.973 92.535 129.973C41.4293 129.973 0 134.456 0 139.986C0 145.517 41.4293 150 92.535 150Z"
          fill="white"/>
    <path d="M39.8284 81.966L43.5995 108.142L32.0652 134.169L35.319 134.982L51.8092 107.625L53.2858 91.7982L68.9625 103.408L75.2491 130.915L79.0201 130.548L75.395 97.7886L58.5379 79.6715L57.3531 76.9349L39.8284 81.966Z"
          fill="#263238"
          stroke="#263238"
          stroke-linecap="round"
          stroke-linejoin="round"/>
    <path d="M73.3038 35.652L72.0218 32.522L75.448 28.9675L76.1465 29.2195L77.716 29.8827L78.746 30.9614L75.5762 36.324L73.3038 35.652Z"
          fill="white"
          stroke="#263238"
          stroke-linecap="round"
          stroke-linejoin="round"/>
    <path d="M71.9554 32.3319C71.9554 32.3319 72.0218 31.6997 72.0836 30.6829C72.1455 29.666 71.6416 28.7774 72.2119 28.7155C72.5059 28.7084 72.7908 28.8178 73.0044 29.0199C73.2181 29.2219 73.3432 29.5003 73.3525 29.7943C73.4188 30.4264 73.4807 31.5626 73.4807 31.5626C73.9364 31.969 74.2676 32.4964 74.4356 33.0834C74.6876 34.0384 73.2906 35.2453 73.2906 35.2453L71.9554 32.3319Z"
          fill="white"
          stroke="#263238"
          stroke-linecap="round"
          stroke-linejoin="round"/>
    <path d="M62.7908 50.9573L64.7184 51.1253L73.3702 35.7139L75.6381 36.3858L67.3223 56.7753L63.2329 55.8204L62.7908 50.9573Z"
          fill="white"
          stroke="#263238"
          stroke-linecap="round"
          stroke-linejoin="round"/>
    <path d="M37.7859 48.6629C37.7859 48.6629 30.8096 55.8072 30.8096 56.8991C30.8096 57.9911 39.3907 81.6565 39.7797 82.2887C40.1688 82.9209 57.4636 77.5936 57.4636 77.3991C57.5629 76.719 57.4518 76.0248 57.1453 75.4097C56.628 74.1851 52.1938 56.1874 52.1938 56.1874L63.9226 57.8496L63.3523 50.8469C63.3523 50.8469 49.4307 48.1501 46.4731 47.7522C43.5155 47.3543 39.5189 47.1863 37.7859 48.6629Z"
          fill="white"
          stroke="#263238"
          stroke-linecap="round"
          stroke-linejoin="round"/>
    <path d="M50.7481 51.7664L52.1849 56.1873L52.4458 52.2792"
          stroke="#263238"
          stroke-linecap="round"
          stroke-linejoin="round"/>
    <path d="M38.2987 46.6734C38.2987 46.6734 36.243 47.4427 36.1767 49.1138C36.1104 50.7849 39.1343 57.4075 39.1343 57.4075C39.1343 57.4075 42.4765 53.6143 43.0557 53.2297C43.6348 52.8451 48.9046 53.7425 48.9046 53.7425C48.9046 53.7425 46.252 48.9237 43.3121 47.3145C40.3722 45.7052 38.2987 46.6734 38.2987 46.6734Z"
          fill="#006EE9"
          stroke="#263238"
          stroke-linecap="round"
          stroke-linejoin="round"/>
    <path d="M36.884 44.8741C37.5461 46.6095 38.394 48.2681 39.4128 49.8211C41.1503 52.5223 45.0716 57.3368 45.1335 55.8646C45.1954 54.3924 42.8214 49.1138 42.481 47.1862C42.1405 45.2587 42.0389 44.7415 42.0389 44.7415C42.0389 44.7415 37.9141 45.7008 36.884 44.8741Z"
          fill="white"
          stroke="#263238"
          stroke-linecap="round"
          stroke-linejoin="round"/>
    <path d="M32.7327 54.3085C32.7327 54.3085 35.0228 52.0184 37.8345 57.1202C40.6462 62.222 49.1389 81.5946 49.1389 81.5946L47.0655 81.6698C47.0655 81.6698 37.7505 60.8913 36.7912 58.893C35.8318 56.8948 34.3508 54.03 31.7601 55.4933L32.7327 54.3085Z"
          fill="white"
          stroke="#263238"
          stroke-linecap="round"
          stroke-linejoin="round"/>
    <path d="M30.1421 59.0433L27.0386 81.2277L28.8865 81.2984L31.4728 59.0433H30.1421Z"
          fill="white"
          stroke="#263238"
          stroke-linecap="round"
          stroke-linejoin="round"/>
    <path d="M31.3578 37.9951C31.3578 37.9951 31.1633 39.2772 31.486 39.7944C31.8088 40.3117 34.1828 42.6857 34.5055 42.1066C34.8283 41.5274 35.2129 38.3134 34.5719 37.4159C33.9308 36.5185 32.2553 36.5804 31.3578 37.9951Z"
          fill="#263238"
          stroke="#263238"
          stroke-linecap="round"
          stroke-linejoin="round"/>
    <path d="M43.9576 35.3558C43.9576 35.3558 45.4342 40.4355 45.4342 41.5451C45.4342 42.6548 44.2759 45.4665 43.1839 46.0456C42.0919 46.6248 41.641 46.4877 40.8054 46.4347C39.9699 46.3816 37.0786 46.0456 35.9866 45.1482C35.4215 44.7282 34.9414 44.2046 34.5719 43.6053C33.5455 43.5949 32.5594 43.2043 31.8044 42.5089C30.5842 41.355 30.3896 39.8121 31.1633 39.4142C31.937 39.0163 33.67 40.4443 33.67 40.4443L33.4136 38.7113L42.6711 34.5291C42.9377 34.5478 43.1953 34.6333 43.4201 34.7778C43.6449 34.9223 43.8298 35.121 43.9576 35.3558Z"
          fill="white"
          stroke="#263238"
          stroke-linecap="round"
          stroke-linejoin="round"/>
    <path d="M41.7073 38.1852C41.7073 38.1852 42.0919 39.2153 42.4765 39.4054C42.8612 39.5955 43.7012 39.7944 43.2502 40.2896C42.9754 40.6005 42.6495 40.8622 42.2864 41.0632"
          stroke="#263238"
          stroke-linecap="round"
          stroke-linejoin="round"/>
    <path d="M41.9637 43.0704C41.9637 43.0704 40.2926 44.0342 39.2625 42.5576"
          stroke="#263238"
          stroke-linecap="round"
          stroke-linejoin="round"/>
    <path d="M149.685 35.8023C149.685 35.8023 146.285 36.2002 145.586 31.7041C144.888 27.2079 155.755 26.1116 159.676 26.3105C163.597 26.5094 166.467 29.7058 166.67 34.2019C166.873 38.698 164.371 42.7962 164.071 45.1924C163.77 47.5886 166.568 46.0766 166.568 46.0766C166.568 46.0766 166.67 48.9723 162.771 50.471C158.871 51.9697 155.078 51.1695 154.278 48.9723C153.478 46.7751 155.162 43.4771 155.777 42.3762C156.391 41.2754 154.38 39.5822 154.079 37.5839C153.88 36.4776 153.984 35.338 154.38 34.2859C154.38 34.2859 150.883 35.8995 149.685 35.8023Z"
          fill="#263238"
          stroke="#263238"
          stroke-linecap="round"
          stroke-linejoin="round"/>
    <path d="M156.683 32.796C156.683 32.796 155.357 34.4406 158.796 36.5494C162.236 38.6582 164.194 38.6626 164.897 39.9933"
          stroke="white"
          stroke-width="0.75"
          stroke-linecap="round"
          stroke-linejoin="round"/>
    <path d="M165.879 37.7432C165.963 38.2027 165.974 38.6725 165.914 39.1358"
          stroke="white"
          stroke-width="0.75"
          stroke-linecap="round"
          stroke-linejoin="round"/>
    <path d="M159.031 31.2311C159.031 31.2311 159.11 32.3275 162.24 33.6582C164.212 34.4937 165.251 35.7714 165.693 37.0314"
          stroke="white"
          stroke-width="0.75"
          stroke-linecap="round"
          stroke-linejoin="round"/>
    <path d="M161.493 49.5648C161.825 49.8754 162.255 50.0586 162.709 50.0821"
          stroke="white"
          stroke-width="0.75"
          stroke-linecap="round"
          stroke-linejoin="round"/>
    <path d="M160.361 39.759C160.976 40.356 161.378 41.1383 161.505 41.9857C161.632 42.8331 161.477 43.6987 161.064 44.4497C160.721 45.0766 160.519 45.7713 160.473 46.4848C160.427 47.1983 160.538 47.9131 160.799 48.5788"
          stroke="white"
          stroke-width="0.75"
          stroke-linecap="round"
          stroke-linejoin="round"/>
    <path d="M147.611 30.8818C146.838 30.7359 146.307 30.7846 146.126 31.3239"
          stroke="white"
          stroke-width="0.75"
          stroke-linecap="round"
          stroke-linejoin="round"/>
    <path d="M160.361 28.9012C160.361 28.9012 158.562 31.3283 154.415 31.8765C152.236 32.1639 150.202 31.5627 148.69 31.1559"
          stroke="white"
          stroke-width="0.75"
          stroke-linecap="round"
          stroke-linejoin="round"/>
    <path d="M146.44 33.8924C146.44 33.8924 147.691 32.6413 148.942 33.8128"
          stroke="white"
          stroke-width="0.75"
          stroke-linecap="round"
          stroke-linejoin="round"/>
    <path d="M150.547 47.2571C150.547 47.2571 142.257 49.2465 141.873 49.7417C141.488 50.2368 133.579 63.062 133.579 63.062L113.358 61.1742L113.19 63.9904L136.4 67.8587L140.878 63.6058L142.536 67.8587C142.536 67.8587 137.673 77.0897 136.457 82.9474C135.241 88.8052 133.915 102.731 133.858 107.758C133.8 112.784 134.079 118.037 135.294 122.347C136.51 126.657 139.715 134.673 139.715 134.673C139.715 134.673 134.91 137.268 132.863 138.209C130.816 139.151 131.647 139.478 132.31 139.646C132.973 139.814 137.063 139.536 139.662 139.204C142.262 138.873 144.415 139.425 144.415 138.43C144.415 137.436 143.142 133.51 142.868 132.294C142.593 131.078 140.657 120.857 140.657 115.605C140.657 110.353 142.757 101.847 142.757 101.847L145.242 92.563C145.242 92.563 144.415 106.821 144.968 110.799C145.52 114.778 153.089 135.499 153.089 135.499C153.089 135.499 149.663 138.926 148.447 140.694C147.231 142.462 147.563 143.011 148.226 142.851C153.531 141.525 155.229 139.204 156.113 138.594C156.997 137.984 156.113 136.33 155.671 135.225C155.229 134.12 153.792 120.026 153.292 116.379C152.793 112.731 151.966 109.252 151.966 109.252C151.966 109.252 158.487 90.9052 158.045 83.6106C157.603 76.316 154.676 66.864 154.676 66.864C154.676 66.864 161.139 55.4801 161.029 54.4323C160.918 53.3845 154.565 47.7434 154.565 47.7434L150.547 47.2571Z"
          fill="white"
          stroke="#263238"
          stroke-linecap="round"
          stroke-linejoin="round"/>
    <path d="M146.311 83.7211C141.639 82.2533 138.769 81.21 137.094 80.5513C136.833 81.3913 136.612 82.2091 136.457 82.9651C135.241 88.8229 133.915 102.749 133.858 107.776C133.8 112.802 134.079 118.054 135.294 122.365C135.688 123.757 136.285 125.53 136.917 127.294C138.561 127.788 140.329 127.667 141.891 126.954C141.294 123.306 140.657 118.642 140.657 115.623C140.657 110.375 142.757 101.865 142.757 101.865L145.242 92.5807C145.242 92.5807 144.415 106.838 144.968 110.817C145.268 113.001 147.686 120.225 149.804 126.29C151.379 126.2 152.923 125.817 154.358 125.163C153.946 121.547 153.549 117.979 153.332 116.388C152.837 112.74 152.006 109.261 152.006 109.261C152.006 109.261 157.89 92.7045 158.102 84.791C154.141 85.2767 150.121 84.912 146.311 83.7211Z"
          fill="#263238"
          stroke="#263238"
          stroke-linecap="round"
          stroke-linejoin="round"/>
    <path d="M139.662 139.213C142.257 138.881 144.415 139.434 144.415 138.439C144.343 137.753 144.205 137.075 144.004 136.414L140.653 136.985C140.653 136.985 140.502 136.246 140.432 135.508C140.423 135.312 140.349 135.124 140.222 134.974C140.095 134.825 139.921 134.721 139.729 134.681C139.729 134.681 134.923 137.276 132.876 138.218C130.829 139.16 131.66 139.487 132.324 139.655C132.987 139.823 137.063 139.544 139.662 139.213Z"
          fill="#263238"
          stroke="#263238"
          stroke-linecap="round"
          stroke-linejoin="round"/>
    <path d="M153.531 136.025C153.311 135.879 153.052 135.805 152.788 135.813C151.931 136.697 149.446 139.253 148.447 140.703C147.231 142.471 147.563 143.019 148.226 142.86C153.531 141.534 155.229 139.213 156.113 138.603C156.687 138.205 156.519 137.36 156.206 136.512C155.714 136.868 155.188 137.175 154.636 137.427C154.358 137.427 154.123 136.392 153.531 136.025Z"
          fill="#263238"
          stroke="#263238"
          stroke-linecap="round"
          stroke-linejoin="round"/>
    <path d="M118.716 62.0053L116.006 59.9584L112.027 59.7373V60.6215L113.795 61.0636L114.016 61.6162L109.706 62.0583L109.817 63.7162L114.127 65.4845L118.548 64.8214L118.716 62.0053Z"
          fill="white"
          stroke="#263238"
          stroke-linecap="round"
          stroke-linejoin="round"/>
    <path d="M154.583 47.7522L150.547 47.2571C150.547 47.2571 142.257 49.2465 141.873 49.7417C141.488 50.2368 133.579 63.062 133.579 63.062L118.711 62.0054L118.543 64.8215L136.395 67.8676L140.874 63.6146L142.532 67.8676C142.532 67.8676 137.669 77.0985 136.453 82.9563C136.355 83.3984 136.258 83.9289 136.165 84.4815C142.724 88.1735 150.377 89.4263 157.771 88.0183C158.01 86.5694 158.106 85.1004 158.058 83.6327C157.616 76.3381 154.689 66.8861 154.689 66.8861C154.689 66.8861 161.153 55.5022 161.042 54.4544C160.932 53.4066 154.583 47.7522 154.583 47.7522Z"
          fill="#006EE9"
          stroke="#263238"
          stroke-linecap="round"
          stroke-linejoin="round"/>
    <path d="M145.754 63.8268C145.754 63.8268 148.438 67.6288 150.45 68.2964"
          stroke="#263238"
          stroke-linecap="round"
          stroke-linejoin="round"/>
    <path d="M149.773 56.0414C150.914 55.4977 155.436 51.3818 156.984 49.9538C155.688 48.7336 154.583 47.7433 154.583 47.7433L150.547 47.2482L148.854 47.6637C148.402 49.3579 148.081 51.0842 147.894 52.8274C147.452 56.8151 148.394 56.7046 149.773 56.0414Z"
          fill="white"
          stroke="#263238"
          stroke-linecap="round"
          stroke-linejoin="round"/>
    <path d="M150.326 45.0465C150.307 46.159 150.176 47.2668 149.937 48.3534C149.548 50.0112 148.553 54.2642 149.163 54.3747C149.773 54.4852 155.021 48.6275 155.021 48.6275L155.573 43.8219L150.326 45.0465Z"
          fill="white"
          stroke="#263238"
          stroke-linecap="round"
          stroke-linejoin="round"/>
    <path d="M142.536 53.4464C142.536 53.4464 142.868 55.6569 142.757 56.0415C142.647 56.4261 140.268 58.473 140.268 59.9673C140.338 61.2017 140.542 62.4247 140.878 63.6146"
          stroke="#263238"
          stroke-linecap="round"
          stroke-linejoin="round"/>
    <path d="M127.187 30.4737L62.4706 31.6485C61.5136 31.6658 60.7519 32.4557 60.7693 33.4127L61.563 77.1331C61.5804 78.0901 62.3702 78.8518 63.3272 78.8344L128.044 77.6596C129.001 77.6422 129.762 76.8523 129.745 75.8954L128.951 32.1749C128.934 31.218 128.144 30.4563 127.187 30.4737Z"
          fill="#006EE9"
          stroke="#263238"
          stroke-width="2"
          stroke-linecap="round"
          stroke-linejoin="round"/>
    <path d="M60.766 33.4194L94.0514 58.3404C94.5597 58.7217 95.1824 58.9193 95.8176 58.9009C96.4529 58.8824 97.063 58.6489 97.5484 58.2387L128.831 31.7837"
          fill="#006EE9"/>
    <path d="M60.766 33.4194L94.0514 58.3404C94.5597 58.7217 95.1824 58.9193 95.8176 58.9009C96.4529 58.8824 97.063 58.6489 97.5484 58.2387L128.831 31.7837"
          stroke="#263238"
          stroke-width="2"
          stroke-linecap="round"
          stroke-linejoin="round"/>
    <path d="M31.4861 39.4055L43.8338 33.8793C43.8338 33.8793 41.9018 29.7015 40.9381 28.6095C39.9743 27.5175 36.1811 27.1285 33.8026 28.0922C31.4242 29.056 29.3817 31.629 29.2402 32.9155C29.0987 34.202 31.4861 39.4055 31.4861 39.4055Z"
          fill="#263238"
          stroke="#263238"
          stroke-linecap="round"
          stroke-linejoin="round"/>
    <path d="M50.2574 32.659C50.2574 32.659 50.3193 33.8129 48.5863 34.7148C46.8533 35.6166 43.7011 35.6785 44.4704 34.5866C45.2396 33.4946 49.9347 32.3982 50.2574 32.659Z"
          fill="#263238"
          stroke="#263238"
          stroke-linecap="round"
          stroke-linejoin="round"/>
    <path d="M33.4136 38.7025C34.4934 39.206 35.6725 39.4607 36.8638 39.4477C38.0552 39.4347 39.2285 39.1543 40.297 38.6273C43.962 36.828 45.5049 34.5114 47.5606 33.6758C49.6164 32.8403 51.1593 32.5839 49.9391 32.3496C48.7189 32.1152 43.8338 33.8792 43.8338 33.8792L33.4136 38.7025Z"
          fill="#006EE9"
          stroke="#263238"
          stroke-linecap="round"
          stroke-linejoin="round"/>
    <path d="M37.6444 34.0472C37.453 34.1246 37.239 34.1246 37.0476 34.0472C36.9476 34.0076 36.8568 33.9479 36.7808 33.8719C36.7047 33.7959 36.6451 33.7051 36.6055 33.6051L36.1634 32.46C36.0872 32.2634 36.0907 32.0448 36.1733 31.8507C36.2559 31.6566 36.4109 31.5025 36.6055 31.4211L38.8425 30.5369C38.9399 30.4964 39.0443 30.4756 39.1498 30.4756C39.2552 30.4756 39.3597 30.4964 39.457 30.5369C39.5573 30.576 39.6483 30.6355 39.7244 30.7116C39.8005 30.7877 39.86 30.8788 39.8991 30.979L40.3412 32.1196C40.3817 32.217 40.4026 32.3214 40.4026 32.4269C40.4026 32.5323 40.3817 32.6368 40.3412 32.7341C40.3005 32.8335 40.2405 32.9237 40.1646 32.9996C40.0887 33.0755 39.9985 33.1356 39.8991 33.1762L37.6621 34.0604L37.6444 34.0472ZM38.9354 30.6917L36.6984 31.5759C36.5459 31.6369 36.4237 31.7557 36.3583 31.9063C36.2929 32.057 36.2896 32.2274 36.3491 32.3805L36.7912 33.5211C36.8523 33.675 36.9713 33.7988 37.1228 33.8659C37.1976 33.8976 37.278 33.914 37.3593 33.914C37.4406 33.914 37.521 33.8976 37.5958 33.8659L39.8328 32.9817C39.9087 32.952 39.9779 32.9075 40.0366 32.8509C40.0952 32.7943 40.1421 32.7267 40.1746 32.652C40.207 32.5772 40.2244 32.4968 40.2257 32.4153C40.227 32.3338 40.2121 32.2528 40.1821 32.1771L39.74 31.0365C39.6802 30.8843 39.5626 30.7619 39.4128 30.6961C39.2631 30.6337 39.095 30.6321 38.9442 30.6917H38.9354Z"
          fill="white"/>
    <path d="M38.3562 32.46C38.3134 32.4756 38.2664 32.4756 38.2236 32.46L36.3181 31.9118C36.2993 31.9057 36.2835 31.8928 36.2737 31.8757C36.2639 31.8585 36.2608 31.8383 36.2651 31.819C36.2676 31.8089 36.2722 31.7994 36.2785 31.7912C36.2849 31.7829 36.2929 31.7761 36.3021 31.7711C36.3112 31.7661 36.3213 31.7631 36.3317 31.7622C36.342 31.7613 36.3525 31.7626 36.3624 31.766L38.2545 32.3186C38.2669 32.3223 38.2803 32.3217 38.2923 32.3169C38.3043 32.3121 38.3144 32.3033 38.3208 32.292L39.2713 30.5944C39.2815 30.5776 39.2978 30.5654 39.3168 30.5604C39.3358 30.5555 39.356 30.5581 39.373 30.5679C39.3822 30.572 39.3904 30.5781 39.397 30.5856C39.4036 30.5932 39.4086 30.6021 39.4115 30.6117C39.4144 30.6213 39.4153 30.6315 39.414 30.6414C39.4127 30.6514 39.4093 30.661 39.404 30.6696L38.4535 32.3672C38.4328 32.4085 38.3984 32.4413 38.3562 32.46Z"
          fill="white"/>
    <path d="M75.9564 31.7616C75.8052 31.7616 75.6601 31.7016 75.5531 31.5946C75.4462 31.4877 75.3861 31.3426 75.3861 31.1913V29.2196C75.3861 29.0683 75.4462 28.9233 75.5531 28.8163C75.6601 28.7094 75.8052 28.6493 75.9564 28.6493C76.1077 28.6493 76.2527 28.7094 76.3597 28.8163C76.4666 28.9233 76.5267 29.0683 76.5267 29.2196V31.1913C76.5267 31.3426 76.4666 31.4877 76.3597 31.5946C76.2527 31.7016 76.1077 31.7616 75.9564 31.7616Z"
          fill="white"
          stroke="#263238"
          stroke-linecap="round"
          stroke-linejoin="round"/>
    <path d="M79.6877 31.5538C79.6148 31.5716 79.5392 31.5748 79.465 31.5633C79.3909 31.5519 79.3198 31.5259 79.2557 31.4869C79.1917 31.4478 79.1359 31.3966 79.0917 31.336C79.0475 31.2754 79.0157 31.2067 78.998 31.1338L78.6222 29.5865C78.6044 29.5136 78.6012 29.4379 78.6127 29.3638C78.6242 29.2897 78.6502 29.2186 78.6892 29.1545C78.7282 29.0904 78.7794 29.0347 78.84 28.9905C78.9006 28.9462 78.9693 28.9144 79.0422 28.8968C79.1151 28.879 79.1908 28.8757 79.2649 28.8872C79.339 28.8987 79.4101 28.9247 79.4742 28.9637C79.5383 29.0027 79.594 29.054 79.6382 29.1146C79.6824 29.1752 79.7143 29.2439 79.7319 29.3168L80.1077 30.8641C80.1255 30.937 80.1287 31.0126 80.1173 31.0868C80.1058 31.1609 80.0798 31.232 80.0408 31.2961C80.0018 31.3601 79.9505 31.4159 79.8899 31.4601C79.8293 31.5043 79.7606 31.5362 79.6877 31.5538Z"
          fill="white"
          stroke="#263238"
          stroke-linecap="round"
          stroke-linejoin="round"/>
    <path d="M78.7593 31.5537C78.6116 31.5898 78.4556 31.5658 78.3255 31.4871C78.1954 31.4084 78.1018 31.2813 78.0652 31.1338L77.6231 29.2195C77.6053 29.1466 77.6021 29.071 77.6135 28.9968C77.625 28.9227 77.651 28.8516 77.69 28.7875C77.729 28.7235 77.7803 28.6677 77.8409 28.6235C77.9015 28.5793 77.9702 28.5474 78.0431 28.5298C78.1908 28.4938 78.3468 28.5177 78.4769 28.5964C78.607 28.6752 78.7006 28.8022 78.7372 28.9498L79.2014 30.8641C79.2183 30.9384 79.2202 31.0154 79.207 31.0905C79.1939 31.1656 79.1659 31.2373 79.1248 31.3015C79.0836 31.3657 79.0301 31.421 78.9674 31.4644C78.9046 31.5077 78.8339 31.538 78.7593 31.5537Z"
          fill="white"
          stroke="#263238"
          stroke-linecap="round"
          stroke-linejoin="round"/>
    <path d="M77.433 31.6068C77.2837 31.6298 77.1313 31.5931 77.0088 31.5046C76.8864 31.416 76.8037 31.2828 76.7787 31.1338L76.4693 29.1886C76.4463 29.0392 76.483 28.8868 76.5715 28.7644C76.6601 28.6419 76.7933 28.5593 76.9423 28.5343C77.0916 28.5113 77.244 28.548 77.3665 28.6366C77.489 28.7251 77.5716 28.8583 77.5966 29.0073L77.9105 30.9525C77.9224 31.0269 77.9195 31.1029 77.902 31.1761C77.8844 31.2493 77.8525 31.3184 77.8081 31.3792C77.7637 31.44 77.7077 31.4915 77.6433 31.5305C77.5789 31.5696 77.5075 31.5955 77.433 31.6068Z"
          fill="white"
          stroke="#263238"
          stroke-linecap="round"
          stroke-linejoin="round"/>
    <path d="M156.489 55.9929L153.473 68.0886L133.911 73.2302L133.964 75.3832L156.347 72.0674C156.347 72.0674 161.816 56.6516 161.926 55.3253C162.037 53.999 159.053 52.0626 159.053 52.0626"
          fill="#006EE9"/>
    <path d="M156.489 55.9929L153.473 68.0886L133.911 73.2302L133.964 75.3832L156.347 72.0674C156.347 72.0674 161.816 56.6516 161.926 55.3253C162.037 53.999 159.053 52.0626 159.053 52.0626"
          stroke="#263238"
          stroke-linecap="round"
          stroke-linejoin="round"/>
    <path d="M133.915 73.2302C133.915 73.2302 130.489 71.4618 129.989 71.2938C129.49 71.1258 126.563 72.3991 125.679 72.4565C124.795 72.514 124.021 72.3991 124.41 72.9517C124.569 73.1799 124.786 73.3617 125.039 73.4782C125.291 73.5948 125.57 73.6419 125.847 73.6148C126.4 73.6148 128.61 73.3407 128.942 73.3407C129.273 73.3407 127.947 74.3354 127.005 75.1622C126.064 75.9889 124.079 77.3726 124.079 77.6512C124.079 77.9297 124.631 78.0933 125.126 78.0358C125.621 77.9783 126.289 77.8722 126.674 77.8722C127.058 77.8722 128.942 78.0933 129.658 77.7042C130.374 77.3152 133.031 75.6043 133.031 75.6043L133.968 75.3832L133.915 73.2302Z"
          fill="white"
          stroke="#263238"
          stroke-linecap="round"
          stroke-linejoin="round"/>
    <path d="M149.384 34.003C149.384 34.003 147.174 40.1923 147.686 42.0977C148.199 44.0032 150.083 46.1429 151.78 46.2402C153.478 46.3374 156.776 45.1924 157.178 44.295C157.581 43.3975 157.978 42.394 157.978 42.394C157.978 42.394 159.676 42.394 159.977 41.5098C160.277 40.6256 160.273 39.8121 159.477 39.2993C158.963 39.0001 158.36 38.8935 157.775 38.9987C157.775 38.9987 155.878 38.1145 155.777 36.1029C155.719 34.8954 155.82 33.6854 156.077 32.5043C155.096 33.0747 154.059 33.5428 152.983 33.9013C151.804 34.1903 150.577 34.225 149.384 34.003Z"
          fill="white"
          stroke="#263238"
          stroke-linecap="round"
          stroke-linejoin="round"/>
    <path d="M150.423 36.859C150.268 37.3453 149.981 37.6901 149.782 37.6282C149.583 37.5663 149.548 37.1198 149.702 36.6291C149.857 36.1384 150.144 35.7935 150.343 35.8599C150.542 35.9262 150.578 36.355 150.423 36.859Z"
          fill="#263238"/>
    <path d="M153.628 37.7829C153.473 38.2692 153.186 38.6184 152.987 38.5521C152.788 38.4858 152.753 38.0437 152.908 37.553C153.062 37.0623 153.35 36.7219 153.549 36.7837C153.748 36.8456 153.783 37.301 153.628 37.7829Z"
          fill="#263238"/>
    <path d="M151.13 36.7086C151.13 36.7086 151.055 38.1145 150.193 38.6627L149.804 38.9103C149.71 38.9702 149.632 39.0515 149.575 39.1475C149.519 39.2434 149.486 39.3514 149.479 39.4626C149.472 39.5737 149.491 39.685 149.536 39.7872C149.58 39.8894 149.648 39.9798 149.733 40.0509C149.971 40.2661 150.266 40.4088 150.582 40.462"
          stroke="#263238"
          stroke-linecap="round"
          stroke-linejoin="round"/>
    <path d="M149.879 42.1641C149.879 42.1641 151.913 43.1809 153.164 41.8502"
          stroke="#263238"
          stroke-linecap="round"
          stroke-linejoin="round"/>
    <path d="M149.8 35.064C149.8 35.064 150.582 34.2019 151.289 34.9844"
          stroke="#263238"
          stroke-linecap="round"
          stroke-linejoin="round"/>
    <path d="M152.775 35.5327C152.775 35.5327 154.026 34.675 154.415 36.1605"
          stroke="#263238"
          stroke-linecap="round"
          stroke-linejoin="round"/>
    <path d="M35.319 135.004L43.8338 141.786C43.8338 141.786 43.763 142.228 42.7285 142.228C41.694 142.228 31.4153 139.642 30.8936 139.642C30.372 139.642 30.2305 139.27 30.2305 138.903C30.2305 138.536 32.0785 134.169 32.0785 134.169L35.319 135.004Z"
          fill="#006EE9"
          stroke="#263238"
          stroke-linecap="round"
          stroke-linejoin="round"/>
    <path d="M30.2172 138.903C30.2172 139.27 30.3631 139.642 30.8804 139.642C31.3976 139.642 41.6763 142.228 42.7153 142.228C43.7542 142.228 43.8205 141.786 43.8205 141.786L30.4869 138.059C30.3702 138.331 30.2799 138.614 30.2172 138.903Z"
          fill="white"
          stroke="#263238"
          stroke-linecap="round"
          stroke-linejoin="round"/>
    <path d="M75.2491 130.915C75.2491 130.915 75.1739 135.72 75.2491 136.167C75.3242 136.613 75.5453 136.684 75.9122 136.684C76.2792 136.684 87.5968 136.388 87.8178 136.017C87.873 135.918 87.8886 135.803 87.8614 135.694C87.8343 135.584 87.7666 135.49 87.672 135.429L79.4622 131.211L79.0201 130.548L75.2491 130.915Z"
          fill="#006EE9"
          stroke="#263238"
          stroke-linecap="round"
          stroke-linejoin="round"/>
    <path d="M75.2491 136.167C75.3242 136.609 75.5453 136.684 75.9122 136.684C76.2791 136.684 87.5968 136.388 87.8178 136.017C87.873 135.918 87.8885 135.803 87.8614 135.694C87.8343 135.584 87.7666 135.49 87.6719 135.429L87.2298 135.208L75.2225 135.446C75.2225 135.804 75.2225 136.074 75.2491 136.167Z"
          fill="white"
          stroke="#263238"
          stroke-linecap="round"
          stroke-linejoin="round"/>
    <path d="M26.6672 81.0022L46.9284 80.5601L47.8171 98.602H25.1906L26.6672 81.0022Z"
          fill="white"
          stroke="#263238"
          stroke-linecap="round"
          stroke-linejoin="round"/>
    <path d="M46.9284 80.5601L48.9267 80.7059C48.9267 80.7059 51.6589 97.7885 51.4378 97.7885C51.2168 97.7885 47.817 98.602 47.817 98.602L46.9284 80.5601Z"
          fill="white"
          stroke="#263238"
          stroke-linecap="round"
          stroke-linejoin="round"/>
    <path d="M26.6672 81.0022L35.9822 91.4666L46.6101 80.6132"
          stroke="#263238"
          stroke-linecap="round"
          stroke-linejoin="round"/>
    <path d="M44.9832 70.5864L47.1937 72.3858L66.3806 76.8863C66.8866 76.4969 67.3598 76.0666 67.7953 75.5998C67.9236 75.3434 70.8149 75.6661 71.1376 75.6661C71.4603 75.6661 72.0218 75.4716 72.0218 75.7943C72.0218 76.117 72.0218 76.5017 71.7035 76.6785C71.3852 76.8553 70.0324 76.8067 69.8378 76.8686C69.6433 76.9305 68.6176 77.2532 68.6176 77.2532L74.3384 79.3753C74.0896 79.6634 73.7899 79.9032 73.4542 80.0826C73.0121 80.2772 71.2039 80.149 71.2039 80.149C70.3021 80.4699 69.3787 80.7269 68.4408 80.9182C67.7335 80.9845 65.2268 79.8925 65.2268 79.8925C65.2268 79.8925 49.413 78.5397 47.543 78.0888C45.6729 77.6379 40.9999 74.4371 40.9999 74.4371L44.9832 70.5864Z"
          fill="white"
          stroke="#263238"
          stroke-linecap="round"
          stroke-linejoin="round"/>
    <path d="M33.0909 55.5418C31.3578 55.2854 29.1695 57.6639 29.8149 61.2007C30.4604 64.7374 38.4269 77.6599 38.4269 77.6599L46.1415 70.971C46.1415 70.971 34.8283 55.8027 33.0909 55.5418Z"
          fill="white"
          stroke="#263238"
          stroke-linecap="round"
          stroke-linejoin="round"/>
    <path d="M143.548 10.3597C141.913 9.47551 141.17 10.2094 140.573 9.47551C139.976 8.74164 142.209 6.79642 137.748 4.86446C137.748 4.86446 137.452 0.699922 131.351 0.549609C125.25 0.399297 126.89 4.71415 125.25 5.75749C123.61 6.80084 123.168 5.16066 121.532 6.19959C119.896 7.23851 120.648 9.32078 119.299 9.62141C117.951 9.92203 116.178 8.29512 114.542 9.32078C112.907 10.3464 112.907 11.2572 112.16 11.2572C111.412 11.2572 109.949 10.6603 109.038 11.2572C108.128 11.854 107.102 12.5834 107.102 12.5834H144.738C144.738 12.5834 145.184 11.2527 143.548 10.3597Z"
          fill="#006EE9"/>
    <path opacity="0.5"
          d="M143.548 10.3597C141.913 9.47551 141.17 10.2094 140.573 9.47551C139.976 8.74164 142.209 6.79642 137.748 4.86446C137.748 4.86446 137.452 0.699922 131.351 0.549609C125.25 0.399297 126.89 4.71415 125.25 5.75749C123.61 6.80084 123.168 5.16066 121.532 6.19959C119.896 7.23851 120.648 9.32078 119.299 9.62141C117.951 9.92203 116.178 8.29512 114.542 9.32078C112.907 10.3464 112.907 11.2572 112.16 11.2572C111.412 11.2572 109.949 10.6603 109.038 11.2572C108.128 11.854 107.102 12.5834 107.102 12.5834H144.738C144.738 12.5834 145.184 11.2527 143.548 10.3597Z"
          fill="white"/>
    <path d="M71.2436 18.0478C70.271 17.5173 69.8289 17.9594 69.4753 17.5173C69.1216 17.0752 70.4434 15.9301 67.7953 14.7807C67.7953 14.7807 67.6229 12.3138 64.0065 12.2254C60.3902 12.137 61.354 14.6967 60.3858 15.32C59.4176 15.9434 59.1523 14.9664 58.1753 15.5853C57.1983 16.2042 57.6448 17.4377 56.849 17.6145C56.0532 17.7914 54.9966 16.8188 54.0284 17.4377C53.0603 18.0566 53.0558 18.5827 52.6182 18.5827C52.1805 18.5827 51.2919 18.2335 50.7658 18.5827C50.2397 18.932 49.6163 19.3785 49.6163 19.3785H71.9333C71.9333 19.3785 72.2118 18.5739 71.2436 18.0478Z"
          fill="white"/>
</svg>
