<svg width="153" height="23" viewBox="0 0 153 23" fill="none" xmlns="http://www.w3.org/2000/svg">
    <path d="M11.04 22H6.85059V5.19824H0.537109V0.994141H17.3389V5.19824H11.04V22ZM31.2842 13.6064V9.40234C31.2842 8.82617 31.1719 8.28418 30.9473 7.77637C30.7324 7.25879 30.4346 6.80957 30.0537 6.42871C29.6729 6.04785 29.2236 5.75 28.7061 5.53516C28.1982 5.31055 27.6562 5.19824 27.0801 5.19824C26.5039 5.19824 25.957 5.31055 25.4395 5.53516C24.9316 5.75 24.4873 6.04785 24.1064 6.42871C23.7256 6.80957 23.4229 7.25879 23.1982 7.77637C22.9834 8.28418 22.876 8.82617 22.876 9.40234V13.6064H31.2842ZM35.4883 22H31.2842V17.7959H22.876V22H18.6865V9.40234C18.6865 8.24023 18.9062 7.15137 19.3457 6.13574C19.7852 5.11035 20.3809 4.2168 21.1328 3.45508C21.8945 2.69336 22.7832 2.09277 23.7988 1.65332C24.8242 1.21387 25.918 0.994141 27.0801 0.994141C28.2422 0.994141 29.3311 1.21387 30.3467 1.65332C31.3721 2.09277 32.2656 2.69336 33.0273 3.45508C33.7891 4.2168 34.3896 5.11035 34.8291 6.13574C35.2686 7.15137 35.4883 8.24023 35.4883 9.40234V22ZM37.9053 7.29297C37.9053 6.42383 38.0713 5.6084 38.4033 4.84668C38.7354 4.08496 39.1846 3.4209 39.751 2.85449C40.3271 2.27832 40.9961 1.82422 41.7578 1.49219C42.5195 1.16016 43.335 0.994141 44.2041 0.994141H53.8428V5.19824H44.2041C43.9111 5.19824 43.6377 5.25195 43.3838 5.35938C43.1299 5.4668 42.9053 5.61816 42.71 5.81348C42.5244 5.99902 42.3779 6.21875 42.2705 6.47266C42.1631 6.72656 42.1094 7 42.1094 7.29297C42.1094 7.58594 42.1631 7.86426 42.2705 8.12793C42.3779 8.38184 42.5244 8.60645 42.71 8.80176C42.9053 8.9873 43.1299 9.13379 43.3838 9.24121C43.6377 9.34863 43.9111 9.40234 44.2041 9.40234H48.4082C49.2773 9.40234 50.0928 9.56836 50.8545 9.90039C51.626 10.2227 52.2949 10.6719 52.8613 11.248C53.4375 11.8145 53.8867 12.4834 54.209 13.2549C54.541 14.0166 54.707 14.832 54.707 15.7012C54.707 16.5703 54.541 17.3857 54.209 18.1475C53.8867 18.9092 53.4375 19.5781 52.8613 20.1543C52.2949 20.7207 51.626 21.1699 50.8545 21.502C50.0928 21.834 49.2773 22 48.4082 22H39.0771V17.7959H48.4082C48.7012 17.7959 48.9746 17.7422 49.2285 17.6348C49.4824 17.5273 49.7021 17.3809 49.8877 17.1953C50.083 17 50.2344 16.7754 50.3418 16.5215C50.4492 16.2676 50.5029 15.9941 50.5029 15.7012C50.5029 15.4082 50.4492 15.1348 50.3418 14.8809C50.2344 14.627 50.083 14.4072 49.8877 14.2217C49.7021 14.0264 49.4824 13.875 49.2285 13.7676C48.9746 13.6602 48.7012 13.6064 48.4082 13.6064H44.2041C43.335 13.6064 42.5195 13.4404 41.7578 13.1084C40.9961 12.7764 40.3271 12.3271 39.751 11.7607C39.1846 11.1846 38.7354 10.5156 38.4033 9.75391C38.0713 8.98242 37.9053 8.16211 37.9053 7.29297ZM61.6797 22H57.4756V0.994141H61.6797V11.4971L69.502 0.994141H74.2773L67.6416 9.85645L74.2773 22H69.502L64.8877 13.5039L61.6797 17.7959V22ZM87.3877 9.40234V13.3867H75.083V9.40234H87.3877ZM111.982 15.9941C111.982 16.8633 111.816 17.6836 111.484 18.4551C111.162 19.2168 110.713 19.8857 110.137 20.4619C109.57 21.0283 108.901 21.4775 108.13 21.8096C107.368 22.1318 106.553 22.293 105.684 22.293C104.902 22.293 104.15 22.1562 103.428 21.8828C102.715 21.6094 102.07 21.209 101.494 20.6816C100.918 21.209 100.269 21.6094 99.5459 21.8828C98.8232 22.1562 98.0713 22.293 97.29 22.293C96.4209 22.293 95.6006 22.1318 94.8291 21.8096C94.0674 21.4775 93.3984 21.0283 92.8223 20.4619C92.2559 19.8857 91.8066 19.2168 91.4746 18.4551C91.1523 17.6836 90.9912 16.8633 90.9912 15.9941V0.994141H95.1953V15.9941C95.1953 16.2871 95.249 16.5654 95.3564 16.8291C95.4639 17.083 95.6104 17.3076 95.7959 17.5029C95.9912 17.6885 96.2158 17.835 96.4697 17.9424C96.7236 18.0498 96.9971 18.1035 97.29 18.1035C97.583 18.1035 97.8564 18.0498 98.1104 17.9424C98.3643 17.835 98.584 17.6885 98.7695 17.5029C98.9648 17.3076 99.1162 17.083 99.2236 16.8291C99.3311 16.5654 99.3848 16.2871 99.3848 15.9941V0.994141H103.589V15.9941C103.589 16.2871 103.643 16.5654 103.75 16.8291C103.857 17.083 104.004 17.3076 104.189 17.5029C104.385 17.6885 104.609 17.835 104.863 17.9424C105.117 18.0498 105.391 18.1035 105.684 18.1035C105.977 18.1035 106.25 18.0498 106.504 17.9424C106.758 17.835 106.978 17.6885 107.163 17.5029C107.358 17.3076 107.51 17.083 107.617 16.8291C107.734 16.5654 107.793 16.2871 107.793 15.9941V0.994141H111.982V15.9941ZM128.11 13.6064V9.40234C128.11 8.82617 127.998 8.28418 127.773 7.77637C127.559 7.25879 127.261 6.80957 126.88 6.42871C126.499 6.04785 126.05 5.75 125.532 5.53516C125.024 5.31055 124.482 5.19824 123.906 5.19824C123.33 5.19824 122.783 5.31055 122.266 5.53516C121.758 5.75 121.313 6.04785 120.933 6.42871C120.552 6.80957 120.249 7.25879 120.024 7.77637C119.81 8.28418 119.702 8.82617 119.702 9.40234V13.6064H128.11ZM132.314 22H128.11V17.7959H119.702V22H115.513V9.40234C115.513 8.24023 115.732 7.15137 116.172 6.13574C116.611 5.11035 117.207 4.2168 117.959 3.45508C118.721 2.69336 119.609 2.09277 120.625 1.65332C121.65 1.21387 122.744 0.994141 123.906 0.994141C125.068 0.994141 126.157 1.21387 127.173 1.65332C128.198 2.09277 129.092 2.69336 129.854 3.45508C130.615 4.2168 131.216 5.11035 131.655 6.13574C132.095 7.15137 132.314 8.24023 132.314 9.40234V22ZM152.764 22H148.267L140.166 8.17188V22H135.962V0.994141H140.459L148.56 14.8369V0.994141H152.764V22Z"
          fill="#006EE9"/>
</svg>
