<svg width="22" height="22" viewBox="0 0 22 22" fill="none" xmlns="http://www.w3.org/2000/svg">
    <path d="M11 0.5C5.20109 0.5 0.5 5.20109 0.5 11C0.5 16.7989 5.20109 21.5 11 21.5C16.7989 21.5 21.5 16.7989 21.5 11C21.5 5.20109 16.7989 0.5 11 0.5ZM8 11C8 10.4067 8.17595 9.82664 8.50559 9.33329C8.83524 8.83994 9.30377 8.45542 9.85195 8.22836C10.4001 8.0013 11.0033 7.94189 11.5853 8.05764C12.1672 8.1734 12.7018 8.45912 13.1213 8.87868C13.5409 9.29824 13.8266 9.83279 13.9424 10.4147C14.0581 10.9967 13.9987 11.5999 13.7716 12.1481C13.5446 12.6962 13.1601 13.1648 12.6667 13.4944C12.1734 13.8241 11.5933 14 11 14C10.2044 14 9.44129 13.6839 8.87868 13.1213C8.31607 12.5587 8 11.7956 8 11ZM19.1206 8.08016L15.0739 8.32812C14.7071 7.77147 14.2309 7.29526 13.6742 6.92844L13.9198 2.88172C15.1156 3.31446 16.2015 4.00488 17.1006 4.90405C17.9998 5.80322 18.6902 6.88913 19.123 8.08484L19.1206 8.08016ZM4.90109 4.90109C5.7983 4.00047 6.88405 3.31 8.08016 2.87937L8.32812 6.92609C7.77039 7.29335 7.29335 7.77039 6.92609 8.32812L2.87937 8.0825C3.30969 6.88555 4.00018 5.79898 4.90109 4.90109ZM2.87937 13.9198L6.92609 13.6742C7.29359 14.2311 7.77063 14.7073 8.32812 15.0739L8.0825 19.1206C6.88702 18.6881 5.80126 17.9981 4.90211 17.0993C4.00296 16.2006 3.31241 15.1151 2.87937 13.9198ZM17.0989 17.0989C16.2017 17.9995 15.116 18.69 13.9198 19.1206L13.6742 15.0739C14.2309 14.7071 14.7071 14.2309 15.0739 13.6742L19.1206 13.9198C18.69 15.116 17.9995 16.2017 17.0989 17.0989Z"
          fill="#006EE9"/>
</svg>
