<svg width="19" height="22" viewBox="0 0 19 22" fill="none" xmlns="http://www.w3.org/2000/svg">
    <path d="M17.7373 14.9989C17.6591 14.9052 17.5823 14.8114 17.5069 14.7209C16.4702 13.4736 15.843 12.7208 15.843 9.18969C15.843 7.36156 15.4034 5.86156 14.5368 4.73656C13.8978 3.90547 13.0341 3.275 11.8956 2.80906C11.881 2.80096 11.8679 2.79032 11.857 2.77766C11.4475 1.41359 10.3269 0.5 9.06314 0.5C7.79934 0.5 6.67925 1.41359 6.26977 2.77625C6.25884 2.78845 6.24594 2.79875 6.2316 2.80672C3.57488 3.89469 2.28374 5.98203 2.28374 9.18828C2.28374 12.7208 1.65749 13.4736 0.619875 14.7195C0.54448 14.81 0.467672 14.9019 0.38945 14.9975C0.187392 15.2399 0.0593722 15.5348 0.0205403 15.8473C-0.0182916 16.1598 0.0336901 16.4769 0.170334 16.7609C0.461075 17.3703 1.08072 17.7486 1.78802 17.7486H16.3434C17.0474 17.7486 17.6628 17.3708 17.9545 16.7642C18.0918 16.4801 18.1442 16.1628 18.1057 15.8499C18.0672 15.537 17.9394 15.2417 17.7373 14.9989ZM9.06314 21.5C9.74407 21.4995 10.4121 21.3156 10.9965 20.9679C11.5809 20.6202 12.0598 20.1217 12.3824 19.5252C12.3976 19.4966 12.4051 19.4646 12.4042 19.4322C12.4033 19.3999 12.394 19.3684 12.3772 19.3407C12.3604 19.313 12.3367 19.2901 12.3084 19.2742C12.2801 19.2583 12.2481 19.25 12.2156 19.25H5.91164C5.87909 19.2499 5.84707 19.2582 5.81869 19.274C5.79031 19.2899 5.76654 19.3128 5.74969 19.3405C5.73285 19.3682 5.72351 19.3997 5.72257 19.4321C5.72164 19.4645 5.72914 19.4965 5.74436 19.5252C6.06692 20.1216 6.54573 20.6201 7.13002 20.9678C7.71431 21.3155 8.38229 21.4994 9.06314 21.5Z"
          fill="#006EE9"/>
</svg>
